<svg id="Calque_1" data-name="Calque 1" xmlns="http://www.w3.org/2000/svg" xmlns:xlink="http://www.w3.org/1999/xlink" viewBox="0 0 365.59 365.59"><defs><style>.cls-1{fill:none;}.cls-2{clip-path:url(#clip-path);}.cls-3{opacity:0.15;}.cls-4{clip-path:url(#clip-path-2);}</style><clipPath id="clip-path"><rect class="cls-1" x="-75.96" y="1271.49" width="5472.67" height="2567.94"/></clipPath><clipPath id="clip-path-2"><rect class="cls-1" x="-759.39" y="216.18" width="6824.12" height="4821.57"/></clipPath></defs><path d="M22.5,94.4c2.1-5.38,3.49-11.18,6.44-16C36.89,65.28,49,58.31,64.3,58.19c37.58-.28,75.16-.11,112.73-.08,7.64,0,13.78,5.16,14.68,12.12A14.07,14.07,0,0,1,181.19,86a19.49,19.49,0,0,1-4.9.43c-36.37,0-72.73.17-109.1-.09-9.45-.07-16.49,6.07-16.46,16.23q.38,96.69,0,193.4c0,9.68,6.73,16.2,16.1,16.17q96.87-.37,193.73,0c9.49,0,16-6.56,15.95-16.07-.19-36.58-.08-73.17-.08-109.76,0-9.05,5.76-15.21,14.17-15.19s14.18,6.28,14.18,15.32q0,55.2,0,110.42c0,20.48-12.1,36.44-31.88,42.24a5.49,5.49,0,0,0-1.1.63H55.56a10.56,10.56,0,0,0-1.46-.66c-11.18-3.08-20-9.45-25.64-19.59-2.64-4.79-4-10.28-6-15.46Z"/><path d="M361.06,42.16c-2,11.25-9,19.25-17,26.69-4.34,4-8.35,8.4-12.28,12.38L281.85,31.32a16.23,16.23,0,0,1,1.29-1.52c5.75-5.78,11.46-11.58,17.28-17.28,10.05-9.84,22-13.22,35.47-9.2s21.61,13.36,24.57,27.15a5,5,0,0,0,.6,1.11Z"/><path d="M266.26,46.79l50.65,50.65a13.76,13.76,0,0,0-3.3,1.87c-34.24,34.17-68.56,68.27-102.55,102.7a33,33,0,0,1-19.2,10.13c-13,2.1-25.88,5-38.8,7.61-7.48,1.52-11.45-2.5-9.93-10q4.58-22.61,9-45.24a14.72,14.72,0,0,1,4.18-8Q210.17,102.84,263.9,49C264.67,48.26,265.47,47.53,266.26,46.79Z"/></svg>