<?xml version="1.0" encoding="utf-8"?>
<!-- Generator: Adobe Illustrator 19.1.1, SVG Export Plug-In . SVG Version: 6.00 Build 0)  -->
<svg version="1.1" id="Calque_1" xmlns="http://www.w3.org/2000/svg" xmlns:xlink="http://www.w3.org/1999/xlink" x="0px" y="0px"
	 viewBox="0 0 404.5 404.5" style="enable-background:new 0 0 404.5 404.5;" xml:space="preserve">
<style type="text/css">
	.st0{fill:#1D1D1B;}
	.st1{fill:#880D27;}
	.st2{clip-path:url(#SVGID_2_);fill:#FFFFFF;}
	.st3{fill:#A6A8B0;}
	.st4{fill:#96122F;}
	.st5{clip-path:url(#SVGID_4_);fill:#880D27;}
	.st6{fill:#FFFFFF;}
	.st7{fill:none;}
	.st8{fill:#100C08;}
	.st9{clip-path:url(#SVGID_6_);fill:#100C08;}
	.st10{clip-path:url(#SVGID_8_);fill:#FFFFFF;}
	.st11{clip-path:url(#SVGID_10_);fill:#FFFFFF;}
	.st12{fill:none;stroke:#A6A8B0;stroke-width:4.458;stroke-linejoin:round;stroke-dasharray:19.086,19.086;}
	.st13{fill:none;stroke:#A6A8B0;stroke-width:4.458;stroke-linejoin:round;stroke-dasharray:18.67,18.67;}
	.st14{fill:none;stroke:#A6A8B0;stroke-width:4.458;stroke-linejoin:round;stroke-dasharray:17.165,17.165;}
	.st15{clip-path:url(#SVGID_12_);fill:#A6A8B0;}
	.st16{clip-path:url(#SVGID_14_);fill:#FFFFFF;}
	.st17{clip-path:url(#SVGID_14_);fill:#221F1F;}
	.st18{clip-path:url(#SVGID_14_);fill:#941634;}
	.st19{clip-path:url(#SVGID_16_);fill:#13110C;}
	.st20{clip-path:url(#SVGID_16_);fill:#F2D1A0;}
	.st21{clip-path:url(#SVGID_16_);fill:#8D2632;}
	.st22{clip-path:url(#SVGID_18_);fill:#FFFFFF;}
	.st23{clip-path:url(#SVGID_18_);fill:#221F1F;}
	.st24{clip-path:url(#SVGID_18_);fill:#941634;}
	.st25{clip-path:url(#SVGID_20_);fill:#13110C;}
	.st26{clip-path:url(#SVGID_20_);fill:#F2D1A0;}
	.st27{clip-path:url(#SVGID_20_);fill:#8D2632;}
	.st28{fill:#D2D2D6;}
	.st29{fill:none;stroke:#FFFFFF;stroke-width:3.889;stroke-linejoin:round;}
	.st30{fill:#D1D0D5;}
	.st31{fill:none;stroke:#A6A8B0;stroke-width:4.458;stroke-linejoin:round;stroke-dasharray:19.206,19.206;}
	.st32{fill:none;stroke:#A6A8B0;stroke-width:4.458;stroke-linejoin:round;stroke-dasharray:16.095,16.095;}
	.st33{fill:none;stroke:#A6A8B0;stroke-width:4.458;stroke-linejoin:round;stroke-dasharray:18.452,18.452;}
	.st34{fill:none;stroke:#A6A8B0;stroke-width:4.458;stroke-linejoin:round;stroke-dasharray:17.669,17.669;}
	.st35{fill:none;stroke:#A6A8B0;stroke-width:4.458;stroke-linejoin:round;stroke-dasharray:18.008,18.008;}
	.st36{fill:none;stroke:#A6A8B0;stroke-width:4.458;stroke-linejoin:round;stroke-dasharray:16.985,16.985;}
	.st37{fill:none;stroke:#A6A8B0;stroke-width:4.458;stroke-linejoin:round;stroke-dasharray:18.908,18.908;}
	.st38{fill:none;stroke:#A6A8B0;stroke-width:4.458;stroke-linejoin:round;stroke-dasharray:15.072,15.072;}
	.st39{fill:none;stroke:#A6A8B0;stroke-width:4.458;stroke-linejoin:round;}
	.st40{fill:none;stroke:#FFFFFF;stroke-width:5.32;stroke-linejoin:round;}
	.st41{fill:none;stroke:#A6A8B0;stroke-width:4.458;stroke-linejoin:round;stroke-dasharray:17.211,17.211;}
	.st42{fill:none;stroke:#A6A8B0;stroke-width:4.458;stroke-linejoin:round;stroke-dasharray:17.089,17.089;}
	.st43{fill:none;stroke:#A6A8B0;stroke-width:4.458;stroke-linejoin:round;stroke-dasharray:17.245,17.245;}
	.st44{fill:none;stroke:#A6A8B0;stroke-width:4.458;stroke-linejoin:round;stroke-dasharray:17.58,17.58;}
	.st45{fill:none;stroke:#A6A8B0;stroke-width:4.458;stroke-linejoin:round;stroke-dasharray:16.871,16.871;}
	.st46{fill:none;stroke:#A6A8B0;stroke-width:4.458;stroke-linejoin:round;stroke-dasharray:17.239,17.239;}
	.st47{fill:#941634;}
	.st48{fill:#F2D1A0;}
	.st49{fill:#88162A;}
	.st50{fill:none;stroke:#A6A8B0;stroke-width:4.458;stroke-linejoin:round;stroke-dasharray:17.347,17.347;}
	.st51{fill:none;stroke:#A6A8B0;stroke-width:4.458;stroke-linejoin:round;stroke-dasharray:18.87,18.87;}
	.st52{fill:none;stroke:#A6A8B0;stroke-width:4.458;stroke-linejoin:round;stroke-dasharray:15.886,15.886;}
	.st53{fill:none;stroke:#A6A8B0;stroke-width:4.458;stroke-linejoin:round;stroke-dasharray:21.201,21.201;}
	.st54{fill:none;stroke:#A6A8B0;stroke-width:4.458;stroke-linejoin:round;stroke-dasharray:17.94,17.94;}
	.st55{fill:none;stroke:#A6A8B0;stroke-width:4.458;stroke-linejoin:round;stroke-dasharray:16.758,16.758;}
	.st56{opacity:0.3;}
	.st57{filter:url(#Adobe_OpacityMaskFilter);}
	.st58{mask:url(#SVGID_21_);}
	.st59{filter:url(#Adobe_OpacityMaskFilter_1_);}
	.st60{mask:url(#SVGID_24_);}
	.st61{filter:url(#Adobe_OpacityMaskFilter_2_);}
	.st62{mask:url(#SVGID_27_);}
	.st63{fill:none;stroke:#A6A8B0;stroke-width:1.568;stroke-linejoin:round;stroke-dasharray:6.756,6.756;}
	.st64{fill:none;stroke:#A6A8B0;stroke-width:1.568;stroke-linejoin:round;stroke-dasharray:5.662,5.662;}
	.st65{fill:none;stroke:#A6A8B0;stroke-width:1.568;stroke-linejoin:round;stroke-dasharray:6.491,6.491;}
	.st66{fill:none;stroke:#A6A8B0;stroke-width:1.568;stroke-linejoin:round;stroke-dasharray:6.216,6.216;}
	.st67{fill:none;stroke:#A6A8B0;stroke-width:1.568;stroke-linejoin:round;stroke-dasharray:6.335,6.335;}
	.st68{fill:none;stroke:#A6A8B0;stroke-width:1.568;stroke-linejoin:round;}
	.st69{filter:url(#Adobe_OpacityMaskFilter_3_);}
	.st70{mask:url(#SVGID_30_);}
</style>
<rect x="-1654.7" y="-1005.3" class="st7" width="2211" height="1167.9"/>
<rect x="-1654.7" y="-1005.3" class="st7" width="2211" height="1167.9"/>
<rect x="-1654.7" y="-1005.3" class="st7" width="2211" height="1167.9"/>
<rect x="-1654.7" y="-1005.3" class="st7" width="2211" height="1167.9"/>
<rect x="-1654.7" y="-1005.3" class="st7" width="2211" height="1167.9"/>
<rect x="-1654.7" y="-1005.3" class="st7" width="2211" height="1167.9"/>
<rect x="-1654.7" y="-1005.3" class="st7" width="2211" height="1167.9"/>
<rect x="-1654.7" y="-1005.3" class="st7" width="2211" height="1167.9"/>
<rect x="-1654.7" y="-1005.3" class="st7" width="2211" height="1167.9"/>
<rect x="-1654.7" y="-1005.3" class="st7" width="2211" height="1167.9"/>
<rect x="-1654.7" y="-1005.3" class="st7" width="2211" height="1167.9"/>
<rect x="-1654.7" y="-1005.3" class="st7" width="2211" height="1167.9"/>
<rect x="-1654.7" y="-1005.3" class="st7" width="2211" height="1167.9"/>
<rect x="-1654.7" y="-1005.3" class="st7" width="2211" height="1167.9"/>
<rect x="-1654.7" y="-1005.3" class="st7" width="2211" height="1167.9"/>
<rect x="-1654.7" y="-1005.3" class="st7" width="2211" height="1167.9"/>
<rect x="-1654.7" y="-1005.3" class="st7" width="2211" height="1167.9"/>
<rect x="-1654.7" y="-1005.3" class="st7" width="2211" height="1167.9"/>
<rect x="-1654.7" y="-1005.3" class="st7" width="2211" height="1167.9"/>
<rect x="-1654.7" y="-1005.3" class="st7" width="2211" height="1167.9"/>
<rect x="-1654.7" y="-1005.3" class="st7" width="2211" height="1167.9"/>
<rect x="-1654.7" y="-1005.3" class="st7" width="2211" height="1167.9"/>
<rect x="-1654.7" y="-1005.3" class="st7" width="2211" height="1167.9"/>
<rect x="-1654.7" y="-1005.3" class="st7" width="2211" height="1167.9"/>
<rect x="-1654.7" y="-1005.3" class="st7" width="2211" height="1167.9"/>
<rect x="-1654.7" y="-1005.3" class="st7" width="2211" height="1167.9"/>
<rect x="-1654.7" y="-1005.3" class="st7" width="2211" height="1167.9"/>
<rect x="-1654.7" y="-1005.3" class="st7" width="2211" height="1167.9"/>
<path class="st49" d="M370.9,404.5H33.6C15,404.5,0,389.5,0,370.9V33.6C0,15,15,0,33.6,0h337.3c18.6,0,33.6,15,33.6,33.6v337.3
	C404.5,389.5,389.5,404.5,370.9,404.5z"/>
<g>
	<path class="st6" d="M88.1,349.1c-8.1,0-16.1-3.1-22.3-9.2c-12.3-12.3-12.3-32.2,0-44.5L295.4,65.9c12.3-12.3,32.2-12.3,44.5,0
		c12.3,12.3,12.3,32.2,0,44.5L110.4,339.9C104.2,346.1,96.2,349.1,88.1,349.1z"/>
</g>
<g>
	<path class="st6" d="M317.7,349.1c-8.1,0-16.1-3.1-22.3-9.2L65.9,110.4c-12.3-12.3-12.3-32.2,0-44.5c12.3-12.3,32.2-12.3,44.5,0
		l229.5,229.5c12.3,12.3,12.3,32.2,0,44.5C333.8,346.1,325.7,349.1,317.7,349.1z"/>
</g>
</svg>
