<?xml version="1.0" encoding="utf-8"?>
<!-- Generator: Adobe Illustrator 19.1.1, SVG Export Plug-In . SVG Version: 6.00 Build 0)  -->
<svg version="1.1" id="Calque_1" xmlns="http://www.w3.org/2000/svg" xmlns:xlink="http://www.w3.org/1999/xlink" x="0px" y="0px"
	 viewBox="0 0 404.5 404.5" style="enable-background:new 0 0 404.5 404.5;" xml:space="preserve">
<style type="text/css">
	.st0{fill:#1D1D1B;}
	.st1{fill:#880D27;}
	.st2{clip-path:url(#SVGID_2_);fill:#FFFFFF;}
	.st3{fill:#A6A8B0;}
	.st4{fill:#96122F;}
	.st5{clip-path:url(#SVGID_4_);fill:#880D27;}
	.st6{fill:#FFFFFF;}
	.st7{fill:none;}
	.st8{fill:#100C08;}
	.st9{clip-path:url(#SVGID_6_);fill:#100C08;}
	.st10{clip-path:url(#SVGID_8_);fill:#FFFFFF;}
	.st11{clip-path:url(#SVGID_10_);fill:#FFFFFF;}
	.st12{fill:none;stroke:#A6A8B0;stroke-width:4.458;stroke-linejoin:round;stroke-dasharray:19.086,19.086;}
	.st13{fill:none;stroke:#A6A8B0;stroke-width:4.458;stroke-linejoin:round;stroke-dasharray:18.67,18.67;}
	.st14{fill:none;stroke:#A6A8B0;stroke-width:4.458;stroke-linejoin:round;stroke-dasharray:17.165,17.165;}
	.st15{clip-path:url(#SVGID_12_);fill:#A6A8B0;}
	.st16{clip-path:url(#SVGID_14_);fill:#FFFFFF;}
	.st17{clip-path:url(#SVGID_14_);fill:#221F1F;}
	.st18{clip-path:url(#SVGID_14_);fill:#941634;}
	.st19{clip-path:url(#SVGID_16_);fill:#13110C;}
	.st20{clip-path:url(#SVGID_16_);fill:#F2D1A0;}
	.st21{clip-path:url(#SVGID_16_);fill:#8D2632;}
	.st22{clip-path:url(#SVGID_18_);fill:#FFFFFF;}
	.st23{clip-path:url(#SVGID_18_);fill:#221F1F;}
	.st24{clip-path:url(#SVGID_18_);fill:#941634;}
	.st25{clip-path:url(#SVGID_20_);fill:#13110C;}
	.st26{clip-path:url(#SVGID_20_);fill:#F2D1A0;}
	.st27{clip-path:url(#SVGID_20_);fill:#8D2632;}
	.st28{fill:#D2D2D6;}
	.st29{fill:none;stroke:#FFFFFF;stroke-width:3.889;stroke-linejoin:round;}
	.st30{fill:#D1D0D5;}
	.st31{fill:none;stroke:#A6A8B0;stroke-width:4.458;stroke-linejoin:round;stroke-dasharray:19.206,19.206;}
	.st32{fill:none;stroke:#A6A8B0;stroke-width:4.458;stroke-linejoin:round;stroke-dasharray:16.095,16.095;}
	.st33{fill:none;stroke:#A6A8B0;stroke-width:4.458;stroke-linejoin:round;stroke-dasharray:18.452,18.452;}
	.st34{fill:none;stroke:#A6A8B0;stroke-width:4.458;stroke-linejoin:round;stroke-dasharray:17.669,17.669;}
	.st35{fill:none;stroke:#A6A8B0;stroke-width:4.458;stroke-linejoin:round;stroke-dasharray:18.008,18.008;}
	.st36{fill:none;stroke:#A6A8B0;stroke-width:4.458;stroke-linejoin:round;stroke-dasharray:16.985,16.985;}
	.st37{fill:none;stroke:#A6A8B0;stroke-width:4.458;stroke-linejoin:round;stroke-dasharray:18.908,18.908;}
	.st38{fill:none;stroke:#A6A8B0;stroke-width:4.458;stroke-linejoin:round;stroke-dasharray:15.072,15.072;}
	.st39{fill:none;stroke:#A6A8B0;stroke-width:4.458;stroke-linejoin:round;}
	.st40{fill:none;stroke:#FFFFFF;stroke-width:5.32;stroke-linejoin:round;}
	.st41{fill:none;stroke:#A6A8B0;stroke-width:4.458;stroke-linejoin:round;stroke-dasharray:17.211,17.211;}
	.st42{fill:none;stroke:#A6A8B0;stroke-width:4.458;stroke-linejoin:round;stroke-dasharray:17.089,17.089;}
	.st43{fill:none;stroke:#A6A8B0;stroke-width:4.458;stroke-linejoin:round;stroke-dasharray:17.245,17.245;}
	.st44{fill:none;stroke:#A6A8B0;stroke-width:4.458;stroke-linejoin:round;stroke-dasharray:17.58,17.58;}
	.st45{fill:none;stroke:#A6A8B0;stroke-width:4.458;stroke-linejoin:round;stroke-dasharray:16.871,16.871;}
	.st46{fill:none;stroke:#A6A8B0;stroke-width:4.458;stroke-linejoin:round;stroke-dasharray:17.239,17.239;}
	.st47{fill:#941634;}
	.st48{fill:#F2D1A0;}
	.st49{fill:#88162A;}
	.st50{fill:none;stroke:#A6A8B0;stroke-width:4.458;stroke-linejoin:round;stroke-dasharray:17.347,17.347;}
	.st51{fill:none;stroke:#A6A8B0;stroke-width:4.458;stroke-linejoin:round;stroke-dasharray:18.87,18.87;}
	.st52{fill:none;stroke:#A6A8B0;stroke-width:4.458;stroke-linejoin:round;stroke-dasharray:15.886,15.886;}
	.st53{fill:none;stroke:#A6A8B0;stroke-width:4.458;stroke-linejoin:round;stroke-dasharray:21.201,21.201;}
	.st54{fill:none;stroke:#A6A8B0;stroke-width:4.458;stroke-linejoin:round;stroke-dasharray:17.94,17.94;}
	.st55{fill:none;stroke:#A6A8B0;stroke-width:4.458;stroke-linejoin:round;stroke-dasharray:16.758,16.758;}
	.st56{opacity:0.3;}
	.st57{filter:url(#Adobe_OpacityMaskFilter);}
	.st58{mask:url(#SVGID_21_);}
	.st59{filter:url(#Adobe_OpacityMaskFilter_1_);}
	.st60{mask:url(#SVGID_24_);}
	.st61{filter:url(#Adobe_OpacityMaskFilter_2_);}
	.st62{mask:url(#SVGID_27_);}
	.st63{fill:none;stroke:#A6A8B0;stroke-width:1.568;stroke-linejoin:round;stroke-dasharray:6.756,6.756;}
	.st64{fill:none;stroke:#A6A8B0;stroke-width:1.568;stroke-linejoin:round;stroke-dasharray:5.662,5.662;}
	.st65{fill:none;stroke:#A6A8B0;stroke-width:1.568;stroke-linejoin:round;stroke-dasharray:6.491,6.491;}
	.st66{fill:none;stroke:#A6A8B0;stroke-width:1.568;stroke-linejoin:round;stroke-dasharray:6.216,6.216;}
	.st67{fill:none;stroke:#A6A8B0;stroke-width:1.568;stroke-linejoin:round;stroke-dasharray:6.335,6.335;}
	.st68{fill:none;stroke:#A6A8B0;stroke-width:1.568;stroke-linejoin:round;}
	.st69{filter:url(#Adobe_OpacityMaskFilter_3_);}
	.st70{mask:url(#SVGID_30_);}
</style>
<rect x="-1654.7" y="-1005.3" class="st7" width="2211" height="1167.9"/>
<rect x="-1654.7" y="-1005.3" class="st7" width="2211" height="1167.9"/>
<rect x="-1654.7" y="-1005.3" class="st7" width="2211" height="1167.9"/>
<rect x="-1654.7" y="-1005.3" class="st7" width="2211" height="1167.9"/>
<rect x="-1654.7" y="-1005.3" class="st7" width="2211" height="1167.9"/>
<rect x="-1654.7" y="-1005.3" class="st7" width="2211" height="1167.9"/>
<rect x="-1654.7" y="-1005.3" class="st7" width="2211" height="1167.9"/>
<rect x="-1654.7" y="-1005.3" class="st7" width="2211" height="1167.9"/>
<rect x="-1654.7" y="-1005.3" class="st7" width="2211" height="1167.9"/>
<rect x="-1654.7" y="-1005.3" class="st7" width="2211" height="1167.9"/>
<rect x="-1654.7" y="-1005.3" class="st7" width="2211" height="1167.9"/>
<rect x="-1654.7" y="-1005.3" class="st7" width="2211" height="1167.9"/>
<rect x="-1654.7" y="-1005.3" class="st7" width="2211" height="1167.9"/>
<rect x="-1654.7" y="-1005.3" class="st7" width="2211" height="1167.9"/>
<rect x="-1654.7" y="-1005.3" class="st7" width="2211" height="1167.9"/>
<rect x="-1654.7" y="-1005.3" class="st7" width="2211" height="1167.9"/>
<rect x="-1654.7" y="-1005.3" class="st7" width="2211" height="1167.9"/>
<rect x="-1654.7" y="-1005.3" class="st7" width="2211" height="1167.9"/>
<rect x="-1654.7" y="-1005.3" class="st7" width="2211" height="1167.9"/>
<rect x="-1654.7" y="-1005.3" class="st7" width="2211" height="1167.9"/>
<rect x="-1654.7" y="-1005.3" class="st7" width="2211" height="1167.9"/>
<rect x="-1654.7" y="-1005.3" class="st7" width="2211" height="1167.9"/>
<rect x="-1654.7" y="-1005.3" class="st7" width="2211" height="1167.9"/>
<rect x="-1654.7" y="-1005.3" class="st7" width="2211" height="1167.9"/>
<rect x="-1654.7" y="-1005.3" class="st7" width="2211" height="1167.9"/>
<rect x="-1654.7" y="-1005.3" class="st7" width="2211" height="1167.9"/>
<rect x="-1654.7" y="-1005.3" class="st7" width="2211" height="1167.9"/>
<rect x="-1654.7" y="-1005.3" class="st7" width="2211" height="1167.9"/>
<path class="st49" d="M370.9,404.5H33.6C15,404.5,0,389.5,0,370.9V33.6C0,15,15,0,33.6,0h337.3c18.6,0,33.6,15,33.6,33.6v337.3
	C404.5,389.5,389.5,404.5,370.9,404.5z"/>
<g>
	<path class="st6" d="M42,113.9c2.1-5.4,3.5-11.2,6.4-16c8-13.1,20.1-20.1,35.4-20.2c37.6-0.3,75.2-0.1,112.7-0.1
		c7.6,0,13.8,5.2,14.7,12.1c0.9,7.4-3.4,13.9-10.5,15.8c-1.6,0.4-3.3,0.4-4.9,0.4c-36.4,0-72.7,0.2-109.1-0.1
		c-9.5-0.1-16.5,6.1-16.5,16.2c0.2,64.5,0.2,128.9,0,193.4c0,9.7,6.7,16.2,16.1,16.2c64.6-0.2,129.2-0.2,193.7,0
		c9.5,0,16-6.6,15.9-16.1c-0.2-36.6-0.1-73.2-0.1-109.8c0-9.1,5.8-15.2,14.2-15.2c8.3,0,14.2,6.3,14.2,15.3c0,36.8,0,73.6,0,110.4
		c0,20.5-12.1,36.4-31.9,42.2c-0.4,0.1-0.7,0.4-1.1,0.6c-72.1,0-144.2,0-216.2,0c-0.5-0.2-1-0.5-1.5-0.7c-11.2-3.1-20-9.5-25.6-19.6
		c-2.6-4.8-4-10.3-6-15.5C42,253.6,42,183.7,42,113.9z"/>
	<path class="st6" d="M380.5,61.6c-2,11.3-9,19.3-17,26.7c-4.3,4-8.4,8.4-12.3,12.4c-16.8-16.8-33.2-33.2-49.9-49.9
		c0.2-0.2,0.7-0.9,1.3-1.5c5.7-5.8,11.5-11.6,17.3-17.3c10-9.8,22-13.2,35.5-9.2c13.4,4,21.6,13.4,24.6,27.2
		c0.1,0.4,0.4,0.7,0.6,1.1C380.5,54.6,380.5,58.1,380.5,61.6z"/>
	<path class="st6" d="M285.7,66.3c16.7,16.7,33.2,33.2,50.6,50.7c-1,0.6-2.4,1-3.3,1.9c-34.2,34.2-68.6,68.3-102.6,102.7
		c-5.6,5.6-11.4,8.9-19.2,10.1c-13,2.1-25.9,5-38.8,7.6c-7.5,1.5-11.5-2.5-9.9-10c3.1-15.1,6.1-30.2,9-45.2c0.6-3.1,1.9-5.7,4.2-8
		c35.9-35.8,71.7-71.7,107.6-107.5C284.1,67.7,284.9,67,285.7,66.3z"/>
</g>
</svg>
